<mxfile host="app.diagrams.net" agent="Mozilla/5.0 (Windows NT 10.0; Win64; x64) AppleWebKit/537.36 (KHTML, like Gecko) Chrome/131.0.0.0 Safari/537.36" version="24.8.3">
  <diagram name="Page-1" id="CPcbvO5QNlUPyR3yxr8d">
    <mxGraphModel dx="2390" dy="1230" grid="1" gridSize="10" guides="1" tooltips="1" connect="1" arrows="1" fold="1" page="1" pageScale="1" pageWidth="1800" pageHeight="2600" math="0" shadow="0">
      <root>
        <mxCell id="0" />
        <mxCell id="1" parent="0" />
        <mxCell id="roNGzQ1jkNU1eESigayp-119" style="edgeStyle=orthogonalEdgeStyle;rounded=0;orthogonalLoop=1;jettySize=auto;html=1;exitX=0;exitY=0.5;exitDx=0;exitDy=0;entryX=0;entryY=0.5;entryDx=0;entryDy=0;" parent="1" source="roNGzQ1jkNU1eESigayp-1" target="roNGzQ1jkNU1eESigayp-9" edge="1">
          <mxGeometry relative="1" as="geometry" />
        </mxCell>
        <mxCell id="roNGzQ1jkNU1eESigayp-1" value="" style="rounded=0;whiteSpace=wrap;html=1;fillColor=#dae8fc;strokeColor=#6c8ebf;" parent="1" vertex="1">
          <mxGeometry x="240" y="40" width="1040" height="140" as="geometry" />
        </mxCell>
        <mxCell id="roNGzQ1jkNU1eESigayp-2" value="&lt;font style=&quot;font-size: 16px;&quot;&gt;ProductRepositoryImpl&lt;/font&gt;" style="rounded=0;whiteSpace=wrap;html=1;fontSize=16;" parent="1" vertex="1">
          <mxGeometry x="350" y="80" width="180" height="60" as="geometry" />
        </mxCell>
        <mxCell id="roNGzQ1jkNU1eESigayp-3" value="data" style="text;html=1;align=center;verticalAlign=middle;whiteSpace=wrap;rounded=0;fontSize=16;" parent="1" vertex="1">
          <mxGeometry x="240" y="40" width="60" height="30" as="geometry" />
        </mxCell>
        <mxCell id="roNGzQ1jkNU1eESigayp-117" style="edgeStyle=orthogonalEdgeStyle;rounded=0;orthogonalLoop=1;jettySize=auto;html=1;exitX=1;exitY=0.25;exitDx=0;exitDy=0;entryX=1;entryY=0.5;entryDx=0;entryDy=0;" parent="1" source="roNGzQ1jkNU1eESigayp-4" target="roNGzQ1jkNU1eESigayp-1" edge="1">
          <mxGeometry relative="1" as="geometry" />
        </mxCell>
        <mxCell id="roNGzQ1jkNU1eESigayp-118" style="edgeStyle=orthogonalEdgeStyle;rounded=0;orthogonalLoop=1;jettySize=auto;html=1;exitX=1;exitY=0.75;exitDx=0;exitDy=0;entryX=1;entryY=0.5;entryDx=0;entryDy=0;" parent="1" source="roNGzQ1jkNU1eESigayp-4" target="roNGzQ1jkNU1eESigayp-9" edge="1">
          <mxGeometry relative="1" as="geometry" />
        </mxCell>
        <mxCell id="E4psCLi8Zt_MAklobbHE-24" value="" style="edgeStyle=orthogonalEdgeStyle;rounded=0;orthogonalLoop=1;jettySize=auto;html=1;" edge="1" parent="1" source="roNGzQ1jkNU1eESigayp-4" target="roNGzQ1jkNU1eESigayp-1">
          <mxGeometry relative="1" as="geometry" />
        </mxCell>
        <mxCell id="roNGzQ1jkNU1eESigayp-4" value="" style="rounded=0;whiteSpace=wrap;html=1;fillColor=#d5e8d4;strokeColor=#82b366;" parent="1" vertex="1">
          <mxGeometry x="240" y="240" width="1040" height="360" as="geometry" />
        </mxCell>
        <mxCell id="roNGzQ1jkNU1eESigayp-5" value="&lt;font style=&quot;font-size: 16px;&quot;&gt;ProductDao&lt;/font&gt;" style="rounded=0;whiteSpace=wrap;html=1;fontSize=16;" parent="1" vertex="1">
          <mxGeometry x="460" y="250" width="180" height="60" as="geometry" />
        </mxCell>
        <mxCell id="roNGzQ1jkNU1eESigayp-6" value="domain" style="text;html=1;align=center;verticalAlign=middle;whiteSpace=wrap;rounded=0;fontSize=16;" parent="1" vertex="1">
          <mxGeometry x="240" y="240" width="70" height="30" as="geometry" />
        </mxCell>
        <mxCell id="roNGzQ1jkNU1eESigayp-7" value="ProductEntity" style="rounded=1;whiteSpace=wrap;html=1;fontSize=16;" parent="1" vertex="1">
          <mxGeometry x="330" y="250" width="120" height="60" as="geometry" />
        </mxCell>
        <mxCell id="roNGzQ1jkNU1eESigayp-9" value="" style="rounded=0;whiteSpace=wrap;html=1;fillColor=#f8cecc;strokeColor=#b85450;" parent="1" vertex="1">
          <mxGeometry x="240" y="680" width="1040" height="200" as="geometry" />
        </mxCell>
        <mxCell id="roNGzQ1jkNU1eESigayp-10" value="presentation" style="text;html=1;align=center;verticalAlign=middle;whiteSpace=wrap;rounded=0;fontSize=16;" parent="1" vertex="1">
          <mxGeometry x="250" y="680" width="100" height="30" as="geometry" />
        </mxCell>
        <mxCell id="roNGzQ1jkNU1eESigayp-104" style="edgeStyle=orthogonalEdgeStyle;rounded=0;orthogonalLoop=1;jettySize=auto;html=1;exitX=0.5;exitY=0;exitDx=0;exitDy=0;entryX=0.5;entryY=1;entryDx=0;entryDy=0;" parent="1" source="roNGzQ1jkNU1eESigayp-12" target="roNGzQ1jkNU1eESigayp-15" edge="1">
          <mxGeometry relative="1" as="geometry">
            <Array as="points">
              <mxPoint x="425" y="650" />
              <mxPoint x="515" y="650" />
            </Array>
          </mxGeometry>
        </mxCell>
        <mxCell id="roNGzQ1jkNU1eESigayp-106" style="edgeStyle=orthogonalEdgeStyle;rounded=0;orthogonalLoop=1;jettySize=auto;html=1;exitX=0.5;exitY=0;exitDx=0;exitDy=0;entryX=0.5;entryY=1;entryDx=0;entryDy=0;" parent="1" source="roNGzQ1jkNU1eESigayp-12" target="roNGzQ1jkNU1eESigayp-13" edge="1">
          <mxGeometry relative="1" as="geometry">
            <Array as="points">
              <mxPoint x="425" y="650" />
              <mxPoint x="320" y="650" />
            </Array>
          </mxGeometry>
        </mxCell>
        <mxCell id="roNGzQ1jkNU1eESigayp-12" value="Каталог товаров" style="rounded=0;whiteSpace=wrap;html=1;fontSize=16;" parent="1" vertex="1">
          <mxGeometry x="340" y="740" width="170" height="60" as="geometry" />
        </mxCell>
        <mxCell id="roNGzQ1jkNU1eESigayp-13" value="GetProducts" style="ellipse;whiteSpace=wrap;html=1;fontSize=16;" parent="1" vertex="1">
          <mxGeometry x="260" y="500" width="120" height="70" as="geometry" />
        </mxCell>
        <mxCell id="roNGzQ1jkNU1eESigayp-15" value="GetWishedProducts" style="ellipse;whiteSpace=wrap;html=1;fontSize=16;" parent="1" vertex="1">
          <mxGeometry x="430" y="500" width="170" height="70" as="geometry" />
        </mxCell>
        <mxCell id="roNGzQ1jkNU1eESigayp-16" value="Товар" style="rounded=0;whiteSpace=wrap;html=1;fontSize=16;" parent="1" vertex="1">
          <mxGeometry x="790" y="740" width="120" height="60" as="geometry" />
        </mxCell>
        <mxCell id="roNGzQ1jkNU1eESigayp-17" value="GetProductDetailsById" style="ellipse;whiteSpace=wrap;html=1;fontSize=16;" parent="1" vertex="1">
          <mxGeometry x="640" y="490" width="190" height="70" as="geometry" />
        </mxCell>
        <mxCell id="roNGzQ1jkNU1eESigayp-21" value="AddProductToWishedById" style="ellipse;whiteSpace=wrap;html=1;fontSize=16;" parent="1" vertex="1">
          <mxGeometry x="900" y="490" width="210" height="70" as="geometry" />
        </mxCell>
        <mxCell id="roNGzQ1jkNU1eESigayp-107" style="edgeStyle=orthogonalEdgeStyle;rounded=0;orthogonalLoop=1;jettySize=auto;html=1;exitX=0.5;exitY=0;exitDx=0;exitDy=0;entryX=0.5;entryY=1;entryDx=0;entryDy=0;" parent="1" source="roNGzQ1jkNU1eESigayp-22" edge="1">
          <mxGeometry relative="1" as="geometry">
            <mxPoint x="1110" y="550" as="targetPoint" />
          </mxGeometry>
        </mxCell>
        <mxCell id="roNGzQ1jkNU1eESigayp-113" style="edgeStyle=orthogonalEdgeStyle;rounded=0;orthogonalLoop=1;jettySize=auto;html=1;exitX=0;exitY=0.5;exitDx=0;exitDy=0;entryX=0;entryY=0.5;entryDx=0;entryDy=0;" parent="1" source="roNGzQ1jkNU1eESigayp-28" target="roNGzQ1jkNU1eESigayp-30" edge="1">
          <mxGeometry relative="1" as="geometry" />
        </mxCell>
        <mxCell id="roNGzQ1jkNU1eESigayp-28" value="" style="rounded=0;whiteSpace=wrap;html=1;fillColor=#d5e8d4;strokeColor=#82b366;" parent="1" vertex="1">
          <mxGeometry x="520" y="1100" width="720" height="250" as="geometry" />
        </mxCell>
        <mxCell id="roNGzQ1jkNU1eESigayp-30" value="" style="rounded=0;whiteSpace=wrap;html=1;fillColor=#f8cecc;strokeColor=#b85450;" parent="1" vertex="1">
          <mxGeometry x="500" y="1430" width="720" height="160" as="geometry" />
        </mxCell>
        <mxCell id="roNGzQ1jkNU1eESigayp-31" value="FirebaseAuthHelper" style="rounded=0;whiteSpace=wrap;html=1;fontSize=16;" parent="1" vertex="1">
          <mxGeometry x="620" y="1110" width="170" height="60" as="geometry" />
        </mxCell>
        <mxCell id="roNGzQ1jkNU1eESigayp-120" style="edgeStyle=orthogonalEdgeStyle;rounded=0;orthogonalLoop=1;jettySize=auto;html=1;exitX=0.5;exitY=0;exitDx=0;exitDy=0;entryX=0.5;entryY=1;entryDx=0;entryDy=0;" parent="1" source="roNGzQ1jkNU1eESigayp-34" target="roNGzQ1jkNU1eESigayp-35" edge="1">
          <mxGeometry relative="1" as="geometry" />
        </mxCell>
        <mxCell id="roNGzQ1jkNU1eESigayp-121" style="edgeStyle=orthogonalEdgeStyle;rounded=0;orthogonalLoop=1;jettySize=auto;html=1;exitX=0.5;exitY=0;exitDx=0;exitDy=0;entryX=0.5;entryY=1;entryDx=0;entryDy=0;" parent="1" source="roNGzQ1jkNU1eESigayp-34" target="roNGzQ1jkNU1eESigayp-36" edge="1">
          <mxGeometry relative="1" as="geometry" />
        </mxCell>
        <mxCell id="roNGzQ1jkNU1eESigayp-34" value="Страница входа" style="rounded=0;whiteSpace=wrap;html=1;fontSize=16;" parent="1" vertex="1">
          <mxGeometry x="790" y="1510" width="120" height="60" as="geometry" />
        </mxCell>
        <mxCell id="roNGzQ1jkNU1eESigayp-35" value="SignIn" style="ellipse;whiteSpace=wrap;html=1;fontSize=16;" parent="1" vertex="1">
          <mxGeometry x="650" y="1200" width="120" height="80" as="geometry" />
        </mxCell>
        <mxCell id="roNGzQ1jkNU1eESigayp-36" value="SignUp" style="ellipse;whiteSpace=wrap;html=1;fontSize=16;" parent="1" vertex="1">
          <mxGeometry x="940" y="1200" width="120" height="80" as="geometry" />
        </mxCell>
        <mxCell id="roNGzQ1jkNU1eESigayp-84" value="presentation" style="text;html=1;align=center;verticalAlign=middle;whiteSpace=wrap;rounded=0;fontSize=16;" parent="1" vertex="1">
          <mxGeometry x="500" y="1430" width="100" height="30" as="geometry" />
        </mxCell>
        <mxCell id="roNGzQ1jkNU1eESigayp-95" value="" style="endArrow=classic;html=1;rounded=0;exitX=0.5;exitY=0;exitDx=0;exitDy=0;entryX=0.5;entryY=1;entryDx=0;entryDy=0;" parent="1" source="roNGzQ1jkNU1eESigayp-16" target="roNGzQ1jkNU1eESigayp-17" edge="1">
          <mxGeometry width="50" height="50" relative="1" as="geometry">
            <mxPoint x="860" y="490" as="sourcePoint" />
            <mxPoint x="910" y="440" as="targetPoint" />
            <Array as="points">
              <mxPoint x="850" y="640" />
              <mxPoint x="735" y="640" />
            </Array>
          </mxGeometry>
        </mxCell>
        <mxCell id="roNGzQ1jkNU1eESigayp-103" style="edgeStyle=orthogonalEdgeStyle;rounded=0;orthogonalLoop=1;jettySize=auto;html=1;exitX=0.5;exitY=0;exitDx=0;exitDy=0;entryX=0.5;entryY=1;entryDx=0;entryDy=0;" parent="1" source="roNGzQ1jkNU1eESigayp-16" target="roNGzQ1jkNU1eESigayp-21" edge="1">
          <mxGeometry relative="1" as="geometry">
            <Array as="points">
              <mxPoint x="850" y="640" />
              <mxPoint x="1005" y="640" />
            </Array>
          </mxGeometry>
        </mxCell>
        <mxCell id="E4psCLi8Zt_MAklobbHE-2" style="edgeStyle=orthogonalEdgeStyle;rounded=0;orthogonalLoop=1;jettySize=auto;html=1;exitX=0;exitY=0.5;exitDx=0;exitDy=0;entryX=0;entryY=0.5;entryDx=0;entryDy=0;" edge="1" parent="1" source="E4psCLi8Zt_MAklobbHE-3" target="E4psCLi8Zt_MAklobbHE-12">
          <mxGeometry relative="1" as="geometry" />
        </mxCell>
        <mxCell id="E4psCLi8Zt_MAklobbHE-3" value="" style="rounded=0;whiteSpace=wrap;html=1;fillColor=#dae8fc;strokeColor=#6c8ebf;" vertex="1" parent="1">
          <mxGeometry x="1420" y="40" width="770" height="140" as="geometry" />
        </mxCell>
        <mxCell id="E4psCLi8Zt_MAklobbHE-4" value="WishlistRepositoryImpl" style="rounded=0;whiteSpace=wrap;html=1;fontSize=16;" vertex="1" parent="1">
          <mxGeometry x="1530" y="80" width="180" height="60" as="geometry" />
        </mxCell>
        <mxCell id="E4psCLi8Zt_MAklobbHE-5" value="data" style="text;html=1;align=center;verticalAlign=middle;whiteSpace=wrap;rounded=0;fontSize=16;" vertex="1" parent="1">
          <mxGeometry x="1420" y="40" width="60" height="30" as="geometry" />
        </mxCell>
        <mxCell id="E4psCLi8Zt_MAklobbHE-6" style="edgeStyle=orthogonalEdgeStyle;rounded=0;orthogonalLoop=1;jettySize=auto;html=1;exitX=1;exitY=0.25;exitDx=0;exitDy=0;entryX=1;entryY=0.5;entryDx=0;entryDy=0;" edge="1" parent="1" source="E4psCLi8Zt_MAklobbHE-8" target="E4psCLi8Zt_MAklobbHE-3">
          <mxGeometry relative="1" as="geometry" />
        </mxCell>
        <mxCell id="E4psCLi8Zt_MAklobbHE-7" style="edgeStyle=orthogonalEdgeStyle;rounded=0;orthogonalLoop=1;jettySize=auto;html=1;exitX=1;exitY=0.75;exitDx=0;exitDy=0;entryX=1;entryY=0.5;entryDx=0;entryDy=0;" edge="1" parent="1" source="E4psCLi8Zt_MAklobbHE-8" target="E4psCLi8Zt_MAklobbHE-12">
          <mxGeometry relative="1" as="geometry" />
        </mxCell>
        <mxCell id="E4psCLi8Zt_MAklobbHE-8" value="" style="rounded=0;whiteSpace=wrap;html=1;fillColor=#d5e8d4;strokeColor=#82b366;" vertex="1" parent="1">
          <mxGeometry x="1420" y="240" width="770" height="360" as="geometry" />
        </mxCell>
        <mxCell id="E4psCLi8Zt_MAklobbHE-9" value="&lt;font style=&quot;font-size: 16px;&quot;&gt;WishlistDao&lt;/font&gt;" style="rounded=0;whiteSpace=wrap;html=1;fontSize=16;" vertex="1" parent="1">
          <mxGeometry x="1640" y="250" width="180" height="60" as="geometry" />
        </mxCell>
        <mxCell id="E4psCLi8Zt_MAklobbHE-10" value="domain" style="text;html=1;align=center;verticalAlign=middle;whiteSpace=wrap;rounded=0;fontSize=16;" vertex="1" parent="1">
          <mxGeometry x="1420" y="240" width="70" height="30" as="geometry" />
        </mxCell>
        <mxCell id="E4psCLi8Zt_MAklobbHE-11" value="WishlistEntity" style="rounded=1;whiteSpace=wrap;html=1;fontSize=16;" vertex="1" parent="1">
          <mxGeometry x="1510" y="250" width="120" height="60" as="geometry" />
        </mxCell>
        <mxCell id="E4psCLi8Zt_MAklobbHE-12" value="" style="rounded=0;whiteSpace=wrap;html=1;fillColor=#f8cecc;strokeColor=#b85450;" vertex="1" parent="1">
          <mxGeometry x="1420" y="680" width="770" height="200" as="geometry" />
        </mxCell>
        <mxCell id="E4psCLi8Zt_MAklobbHE-13" value="presentation" style="text;html=1;align=center;verticalAlign=middle;whiteSpace=wrap;rounded=0;fontSize=16;" vertex="1" parent="1">
          <mxGeometry x="1430" y="680" width="100" height="30" as="geometry" />
        </mxCell>
        <mxCell id="E4psCLi8Zt_MAklobbHE-14" style="edgeStyle=orthogonalEdgeStyle;rounded=0;orthogonalLoop=1;jettySize=auto;html=1;exitX=0.5;exitY=0;exitDx=0;exitDy=0;entryX=0.5;entryY=1;entryDx=0;entryDy=0;" edge="1" parent="1" source="E4psCLi8Zt_MAklobbHE-16" target="E4psCLi8Zt_MAklobbHE-18">
          <mxGeometry relative="1" as="geometry">
            <Array as="points">
              <mxPoint x="1905" y="660" />
              <mxPoint x="1995" y="660" />
            </Array>
          </mxGeometry>
        </mxCell>
        <mxCell id="E4psCLi8Zt_MAklobbHE-15" style="edgeStyle=orthogonalEdgeStyle;rounded=0;orthogonalLoop=1;jettySize=auto;html=1;exitX=0.5;exitY=0;exitDx=0;exitDy=0;entryX=0.5;entryY=1;entryDx=0;entryDy=0;" edge="1" parent="1" source="E4psCLi8Zt_MAklobbHE-16" target="E4psCLi8Zt_MAklobbHE-17">
          <mxGeometry relative="1" as="geometry">
            <Array as="points">
              <mxPoint x="1905" y="660" />
              <mxPoint x="1800" y="660" />
            </Array>
          </mxGeometry>
        </mxCell>
        <mxCell id="E4psCLi8Zt_MAklobbHE-16" value="Каталог товаров" style="rounded=0;whiteSpace=wrap;html=1;fontSize=16;" vertex="1" parent="1">
          <mxGeometry x="1820" y="750" width="170" height="60" as="geometry" />
        </mxCell>
        <mxCell id="E4psCLi8Zt_MAklobbHE-17" value="GetProducts" style="ellipse;whiteSpace=wrap;html=1;fontSize=16;" vertex="1" parent="1">
          <mxGeometry x="1740" y="510" width="120" height="70" as="geometry" />
        </mxCell>
        <mxCell id="E4psCLi8Zt_MAklobbHE-18" value="GetWishedProducts" style="ellipse;whiteSpace=wrap;html=1;fontSize=16;" vertex="1" parent="1">
          <mxGeometry x="1910" y="510" width="170" height="70" as="geometry" />
        </mxCell>
        <mxCell id="E4psCLi8Zt_MAklobbHE-27" style="edgeStyle=orthogonalEdgeStyle;rounded=0;orthogonalLoop=1;jettySize=auto;html=1;exitX=0;exitY=0.5;exitDx=0;exitDy=0;entryX=0.5;entryY=1;entryDx=0;entryDy=0;" edge="1" parent="1" source="E4psCLi8Zt_MAklobbHE-19" target="roNGzQ1jkNU1eESigayp-21">
          <mxGeometry relative="1" as="geometry">
            <Array as="points">
              <mxPoint x="1650" y="780" />
              <mxPoint x="1650" y="710" />
              <mxPoint x="850" y="710" />
              <mxPoint x="850" y="640" />
              <mxPoint x="1005" y="640" />
            </Array>
          </mxGeometry>
        </mxCell>
        <mxCell id="E4psCLi8Zt_MAklobbHE-19" value="Товар" style="rounded=0;whiteSpace=wrap;html=1;fontSize=16;" vertex="1" parent="1">
          <mxGeometry x="1590" y="750" width="120" height="60" as="geometry" />
        </mxCell>
        <mxCell id="E4psCLi8Zt_MAklobbHE-29" style="edgeStyle=orthogonalEdgeStyle;rounded=0;orthogonalLoop=1;jettySize=auto;html=1;exitX=0;exitY=0.5;exitDx=0;exitDy=0;entryX=0;entryY=0.5;entryDx=0;entryDy=0;" edge="1" parent="1" source="E4psCLi8Zt_MAklobbHE-30" target="E4psCLi8Zt_MAklobbHE-39">
          <mxGeometry relative="1" as="geometry" />
        </mxCell>
        <mxCell id="E4psCLi8Zt_MAklobbHE-30" value="" style="rounded=0;whiteSpace=wrap;html=1;fillColor=#dae8fc;strokeColor=#6c8ebf;" vertex="1" parent="1">
          <mxGeometry x="1440" y="1040" width="770" height="270" as="geometry" />
        </mxCell>
        <mxCell id="E4psCLi8Zt_MAklobbHE-31" value="CurrencyRepository" style="rounded=0;whiteSpace=wrap;html=1;fontSize=16;" vertex="1" parent="1">
          <mxGeometry x="1570" y="1050" width="180" height="60" as="geometry" />
        </mxCell>
        <mxCell id="E4psCLi8Zt_MAklobbHE-32" value="data" style="text;html=1;align=center;verticalAlign=middle;whiteSpace=wrap;rounded=0;fontSize=16;" vertex="1" parent="1">
          <mxGeometry x="1470" y="1065" width="60" height="30" as="geometry" />
        </mxCell>
        <mxCell id="E4psCLi8Zt_MAklobbHE-39" value="" style="rounded=0;whiteSpace=wrap;html=1;fillColor=#f8cecc;strokeColor=#b85450;" vertex="1" parent="1">
          <mxGeometry x="1450" y="1450" width="770" height="200" as="geometry" />
        </mxCell>
        <mxCell id="E4psCLi8Zt_MAklobbHE-40" value="presentation" style="text;html=1;align=center;verticalAlign=middle;whiteSpace=wrap;rounded=0;fontSize=16;" vertex="1" parent="1">
          <mxGeometry x="1460" y="1450" width="100" height="30" as="geometry" />
        </mxCell>
        <mxCell id="E4psCLi8Zt_MAklobbHE-41" style="edgeStyle=orthogonalEdgeStyle;rounded=0;orthogonalLoop=1;jettySize=auto;html=1;exitX=0.5;exitY=0;exitDx=0;exitDy=0;entryX=0.5;entryY=1;entryDx=0;entryDy=0;" edge="1" parent="1" source="E4psCLi8Zt_MAklobbHE-43" target="E4psCLi8Zt_MAklobbHE-45">
          <mxGeometry relative="1" as="geometry">
            <Array as="points">
              <mxPoint x="1830" y="1340" />
              <mxPoint x="1995" y="1340" />
            </Array>
          </mxGeometry>
        </mxCell>
        <mxCell id="E4psCLi8Zt_MAklobbHE-42" style="edgeStyle=orthogonalEdgeStyle;rounded=0;orthogonalLoop=1;jettySize=auto;html=1;exitX=0.5;exitY=0;exitDx=0;exitDy=0;entryX=0.5;entryY=1;entryDx=0;entryDy=0;" edge="1" parent="1" source="E4psCLi8Zt_MAklobbHE-43" target="E4psCLi8Zt_MAklobbHE-44">
          <mxGeometry relative="1" as="geometry">
            <Array as="points">
              <mxPoint x="1830" y="1340" />
              <mxPoint x="1620" y="1340" />
            </Array>
          </mxGeometry>
        </mxCell>
        <mxCell id="E4psCLi8Zt_MAklobbHE-43" value="Страница выбора валюты" style="rounded=0;whiteSpace=wrap;html=1;fontSize=16;" vertex="1" parent="1">
          <mxGeometry x="1745" y="1520" width="170" height="60" as="geometry" />
        </mxCell>
        <mxCell id="E4psCLi8Zt_MAklobbHE-44" value="SaveSelectedCurrency" style="ellipse;whiteSpace=wrap;html=1;fontSize=16;" vertex="1" parent="1">
          <mxGeometry x="1560" y="1160" width="120" height="70" as="geometry" />
        </mxCell>
        <mxCell id="E4psCLi8Zt_MAklobbHE-45" value="GetSelectedCurrency" style="ellipse;whiteSpace=wrap;html=1;fontSize=16;" vertex="1" parent="1">
          <mxGeometry x="1910" y="1160" width="170" height="70" as="geometry" />
        </mxCell>
        <mxCell id="E4psCLi8Zt_MAklobbHE-47" value="domain" style="text;html=1;align=center;verticalAlign=middle;whiteSpace=wrap;rounded=0;fontSize=16;" vertex="1" parent="1">
          <mxGeometry x="530" y="1120" width="70" height="30" as="geometry" />
        </mxCell>
      </root>
    </mxGraphModel>
  </diagram>
</mxfile>
